<svg width="46" height="46" viewBox="0 0 46 46" fill="none" xmlns="http://www.w3.org/2000/svg">
<circle cx="23.0076" cy="23.0078" r="16.2759" transform="rotate(-156 23.0076 23.0078)" stroke="#15D728" stroke-width="2"/>
<path d="M31 16H27.83L26 14H20L18.17 16H15C13.9 16 13 16.9 13 18V30C13 31.1 13.9 32 15 32H31C32.1 32 33 31.1 33 30V18C33 16.9 32.1 16 31 16ZM31 30H15V18H19.05L20.88 16H25.12L26.95 18H31V30ZM23 19C20.24 19 18 21.24 18 24C18 26.76 20.24 29 23 29C25.76 29 28 26.76 28 24C28 21.24 25.76 19 23 19ZM23 27C21.35 27 20 25.65 20 24C20 22.35 21.35 21 23 21C24.65 21 26 22.35 26 24C26 25.65 24.65 27 23 27Z" fill="#434DFF"/>
</svg>
