<svg width="26" height="26" viewBox="0 0 26 26" fill="none" xmlns="http://www.w3.org/2000/svg">
<path d="M23.8333 5.41659C23.8333 4.89875 23.4227 4.33325 22.75 4.33325H3.24996C2.57829 4.33325 2.16663 4.8955 2.16663 5.41659V20.5833C2.16663 21.256 2.72996 21.6666 3.24996 21.6666H22.75C23.2678 21.6666 23.8333 21.256 23.8333 20.5833V5.41659ZM9.74996 8.12492V17.8749C9.74996 18.1739 9.50729 18.4166 9.20829 18.4166C8.90929 18.4166 8.66663 18.1739 8.66663 17.8749V8.12492C8.66663 7.82592 8.90929 7.58325 9.20829 7.58325C9.50729 7.58325 9.74996 7.82592 9.74996 8.12492ZM18.4166 8.12492V17.8749C18.4166 18.1739 18.174 18.4166 17.875 18.4166C17.576 18.4166 17.3333 18.1739 17.3333 17.8749V8.12492C17.3333 7.82592 17.576 7.58325 17.875 7.58325C18.174 7.58325 18.4166 7.82592 18.4166 8.12492ZM20.5833 8.12492V17.8749C20.5833 18.1739 20.3406 18.4166 20.0416 18.4166C19.7426 18.4166 19.5 18.1739 19.5 17.8749V8.12492C19.5 7.82592 19.7426 7.58325 20.0416 7.58325C20.3406 7.58325 20.5833 7.82592 20.5833 8.12492ZM6.22913 7.58325C6.67763 7.58325 7.04163 7.94725 7.04163 8.39575V17.6041C7.04163 18.0526 6.67763 18.4166 6.22913 18.4166C5.78063 18.4166 5.41663 18.0526 5.41663 17.6041V8.39575C5.41663 7.94725 5.78063 7.58325 6.22913 7.58325ZM12.1875 7.58325C12.636 7.58325 13 7.94725 13 8.39575V17.6041C13 18.0526 12.636 18.4166 12.1875 18.4166C11.739 18.4166 11.375 18.0526 11.375 17.6041V8.39575C11.375 7.94725 11.739 7.58325 12.1875 7.58325ZM15.4375 7.56917C15.886 7.56917 16.25 7.93317 16.25 8.38167V17.59C16.25 18.0385 15.886 18.4025 15.4375 18.4025C14.989 18.4025 14.625 18.0385 14.625 17.59V8.38167C14.625 7.93317 14.989 7.56917 15.4375 7.56917V7.56917Z" fill="white"/>
</svg>
